<svg width="2688" height="1520" viewBox="0 0 2688 1520" fill="none" xmlns="http://www.w3.org/2000/svg">
<g id="Frame 294" clip-path="url(#clip0_325_120)">
<path id="BRIDGE" fill-rule="evenodd" clip-rule="evenodd" d="M1757 266.989V266.999C1757 289.301 1760.7 347.923 1775.48 403.871L1775.49 403.884L1775.49 403.896C1789.05 468.128 1811.37 584.446 1820.91 634.999H1883V655.51L1592.5 648.987V628.499H1620.59L1667.51 392.901L1667.51 392.888C1672.84 369.425 1683.3 302.564 1682.5 223.004C1681.78 150.888 1681.54 128.871 1681.5 125.865L1681.5 125.864V125.467C1681.5 125.464 1681.5 125.456 1681.5 125.446C1681.5 125.443 1681.5 125.427 1681.51 125.408C1681.51 125.401 1681.51 125.374 1681.52 125.34C1681.52 125.325 1681.54 125.285 1681.56 125.239C1681.57 125.222 1681.66 125.052 1681.88 124.997C1682.04 124.955 1682.17 125 1682.26 125.057L1694.65 129.022L1699.99 130.624L1701.98 197.933L1732.51 194.057L1734 120.989L1734.01 120.672L1734.3 120.543L1753.99 111.734L1757 266.989ZM1768.76 584.203C1730.01 570.603 1684.76 578.719 1666.85 584.523L1666.55 584.619L1660 630.429L1659.93 630.973L1660.48 630.998L1776.04 636.525L1776 635.958C1775.16 625.788 1772.8 601.337 1769.99 584.915L1769.94 584.628L1769.67 584.528L1768.76 584.203ZM1737.41 349.859C1725.52 348.444 1716.42 349.197 1709.83 350.75C1703.05 352.349 1698.9 354.807 1697.14 356.654L1697.03 356.77L1697 356.928L1671.92 529.999H1766.08L1765.99 529.424C1758.16 478.088 1741.79 370.426 1739 350.43L1738.94 350.052L1738.56 350.003L1737.41 349.859ZM1731.66 264.026C1726.34 262.183 1720.23 262.577 1714.8 263.786C1709.37 264.997 1704.55 267.04 1701.76 268.561L1701.51 268.695L1698.47 336.059L1736.52 331.945L1733.5 272.474L1733.5 272.451L1733.5 272.429L1733.17 270.3C1733.05 269.5 1732.91 268.645 1732.77 267.837C1732.63 267.03 1732.48 266.266 1732.34 265.65C1732.28 265.343 1732.21 265.068 1732.15 264.842C1732.09 264.624 1732.02 264.421 1731.95 264.275L1731.86 264.093L1731.66 264.026ZM1707.43 214.004L1707.36 214.014L1707.29 214.044L1701.79 216.544L1701.5 216.677V252.564L1730.56 248.995L1730.73 248.975L1733.5 246.206V210.426L1707.43 214.004Z" fill="#D9D9D9"/>
<g id="BILLBOARD ">
<path d="M1091.5 517.5V712H1108C1119.6 712.8 1122.83 717 1123 719L1125.5 718L1122.5 516.5L1127.5 516V512.5H1146.5V517L1158.5 516L1162.5 515L1180.5 514.5V517.5L1182.5 518L1212 515V518L1232 518.5L1232.5 516H1238.5L1239.5 519.5L1252.5 516V518.5H1267L1283.5 516L1315 514V511L1308.5 509H1301V506.5V503.5H1298H1294.5V505.5L1297 506.5V509H1274.5V498H1297V344H1296L1176 334L1036 321L946.5 312.5L933 311.5L930 312.5V313V316V320.5H924.5L923 318H920L915.5 319V486.5H925.5V499H906.5L905.5 500.5V497.5V492.5L906 492L909 489.5H907.5L905 491H902.5V493.5V500.5H899.5L894.5 502L897 502.5L899.5 505.5H924V509H932.5L938.5 507.5L942 506.5H965.5V511.5L985 509L1009.5 509.5V511.5H1022.5L1027.5 509.5L1049 510V514.5H1054.5L1068.5 512.5V511.5H1087V516L1091.5 517.5Z" fill="#D9D9D9"/>
<path d="M1091.5 712V517.5L1087 516V511.5H1068.5V512.5L1054.5 514.5H1049V510L1027.5 509.5L1022.5 511.5H1009.5V509.5L985 509L965.5 511.5V506.5H942L938.5 507.5L932.5 509H924V505.5H899.5L897 502.5L894.5 502L899.5 500.5H902.5V493.5V491H900.5H905L907.5 489.5H909L906 492L905.5 492.5V497.5V500.5L906.5 499H925.5V486.5H915.5V319L920 318H923L924.5 320.5H930V316V313V312.5L933 311.5L946.5 312.5L1036 321L1176 334L1296 344H1297V498H1274.5V509H1297V506.5L1294.5 505.5V503.5H1298H1301V506.5V509H1308.5L1315 511V514L1283.5 516L1267 518.5H1252.5V516L1239.5 519.5L1238.5 516H1232.5L1232 518.5L1212 518V515L1182.5 518L1180.5 517.5V514.5L1162.5 515L1158.5 516L1146.5 517V512.5H1127.5V516L1122.5 516.5L1125.5 718L1123 719C1122.83 717 1119.6 712.8 1108 712C1095.6 712 1091.83 712 1091.5 712Z" stroke="black"/>
</g>
<path id="ABUJA" d="M2238.5 542V599C2262.5 597 2293.17 602.5 2305.5 605.5L2409.5 593.5L2405.5 349L2528.5 346L2531 591.5H2688V525.5C2664.5 490 2638.5 434.5 2600.5 350C2570.5 284.8 2563.67 216.833 2564 191V78L2560 68.5L2537 69L2537.5 265L2395 268V78.5L2389 70L2366 73.5V185.5C2372.5 248 2339.5 332 2317 390.5C2299 437.3 2257.17 511 2238.5 542Z" fill="#D9D9D9" stroke="black"/>
<path id="Vector 4" d="M2481 150L2537 102.5V105.5L2483.5 152.5C2483.26 151.167 2482.91 151.2 2483.5 162C2484.09 172.8 2479.41 180.833 2477 183.5L2537 230.5V234.5C2518 219.667 2479.1 189.4 2475.5 187C2474.3 188.2 2468.67 190.5 2466 191.5H2443.5V190L2395 230.5V227.5L2442.5 187L2443.5 151L2395 113.5V110L2445.5 148.5L2463 160C2463.17 159.5 2464.7 157 2469.5 151C2475.9 145.4 2478.17 146.667 2478.5 148L2480 151L2481 150Z" fill="#D9D9D9" stroke="black"/>
<g id="LAGOS">
<path d="M0 367.5L24.5 361L69 365.5V373L115.5 376.5C115.333 348.333 116.1 287.6 120.5 270C125.7 239.2 120.667 226.833 117.5 224.5V222L120 220C120.833 218.667 122.1 215.7 120.5 214.5C118.9 213.3 119.5 208 120 205.5L114.5 197L111 212L105.5 213L106 236L95 220L74.5 270L53 236L4.5 303L0 298V202L4 201L4.5 196L10.5 194.5L11.5 190L21.5 182.5L27 180L26.5 177.5L22.5 175.5L19.5 178L17.5 181L15.5 175.5L11.5 183L7.5 184.5L6 178.5L0 187V106L5.5 106.5H9L8.5 104L4.5 101H13L15 99.5L13.5 96.5H17.5L21 97.5L26.5 103L28 102.5L26.5 97.5L33 99L33.5 102.5L39.5 103L38 97.5L40.5 95L46.5 106.5L45.5 103V96.5V94V89L48.5 81L40 91L36 92L33 89L30 87L34.5 74L25 88H18.5L20 80.5L12 88L5.5 88.5L0 89.5V26.5H3.5L2.5 22.5L8.5 23.5L11 26V23V19.5L17.5 22.5H19.5V19.5V15L25 19.5L29 25L36.5 30L33.5 20L38 20.5V16.5C39.3333 16.3333 42 16.1 42 16.5V23.5H44.5L48 21L50.5 23.5L51 19.5L60 23.5L66.5 27L67 29H69.5L72 31L77 31.5V34.5H79H82.5L85.5 32H80L79.5 27.5H84.5L85.5 24H78.5L80.5 21L87.5 21.5L84.5 17L83.5 15L88 14L87.5 9.5L86 4.5L88 2.5L89 0H145.5L146 2L148.5 3L149.5 4.5L150.5 9V13L149.5 17L152 19L152.5 22L154.5 24.5L157 26L156 18.5L162 27L162.5 19V14L169.5 11.5L171.5 16.5L174.5 17V7L181 1.5L184 0H248L257 7L259.5 10L262.5 17L267 19.5L268.5 23L269 28L266.5 30H270.5L271 34L270.5 38L257 37.5L266.5 43L267 46.5L258.5 42L262.5 50L262 51.5L256 55V59.5L251 60L250.5 62L245 63L235 60.5L225.5 66L217 59.5L219.5 71.5L208.5 63.5L213 74L208.5 76.5L204 84.5L195.5 72.5L196 86.5L189 89.5L189.5 94.5H199.5L200.5 86.5H208.5L207.5 90.5L211 87.5L216 84.5L221.5 83.5L220 92.5L225.5 84.5L229 83.5H234.5L225.5 100.5L233 94.5L242 86L247 85L251 86.5L253.5 88L252.5 91.5H254H258.5L260 90.5H261H263.5L261 91.5V96L264.5 93.5L265.5 92.5L269 94.5L266.5 96L272 97.5H276.5V99.5H280.5L266.5 108.5L262 115L275.5 109L287 103.5L288 107.5L276.5 112.5L280.5 113.5L294 110L295.5 112.5L286 117L282 121.5L291.5 120H305L310 124L314 133V141.5L316.5 149.5L317.5 152V156L314 160.5V165L311.5 168L305 171.5L300.5 172.5L297.5 171.5L290 172.5L283.5 170L280.5 168L276 165.5L272.5 170.5L270.5 179L269 184.5H262L258.5 186.5L251 182.5L247 176C246.833 173.833 246.5 169.3 246.5 168.5C246.5 167.7 245.5 163.5 245 161.5L242 170.5L239 176L232 169L234.5 157L232 152L229 158V170L225.5 172.5V150.5L221.5 148.5L218.5 152H217.5V162.5L218.5 167V169L210 147L208.5 157L210 163.5L206 168.5H202.5L198 163.5V170L213.5 173.5L229 180L239.5 186L250 195L262 206L269 215.5L272.5 226H267C267.333 226.667 268.9 228.7 272.5 231.5C276.1 234.3 276.333 236.667 276 237.5L269 234L279.5 241.5L272.5 239.5L279.5 245L270.5 243L280.5 251L267 247.5L278 259.5L263 251L277 262.5L272.5 266.5L265.5 258L275 271L276 275.5L278 282.5V287.5L272.5 281.5L274 295.5L269 292L267 295.5L265.5 300H262L258.5 297L261 292L253.5 295.5L250 287.5L258.5 277L245.5 281.5L245 275L247 264L239 272.5L233.5 264L236.5 255H230.5L225.5 247.5L218 240.5L219 236L210 235L212.5 228.5V217.5V211L207 223.5L203 225L198 223.5V231.5L199.5 235L198 240.5H195V248.5V249.5V254L186.5 255L185.5 258H181.5V256C182.167 254.333 183.1 251 181.5 251H177.5C177 251.333 175.9 251.8 175.5 251C175.1 250.2 175.333 246.667 175.5 245L170.5 244V247.5L169.5 241.5L173 235L168.5 233L163.5 239.5V233L166 222.5L161 228.5L159 225L162 222.5L158 220L153 226L151.5 223.5V217.5L147.5 214.5C144.833 214.5 139.9 215.9 141.5 221.5C143.1 227.1 140.5 231.5 139 233C139.333 243.833 140.5 266.9 142.5 272.5C143.5 285 145.5 318.5 146 356.5C146.165 369.068 146.222 376.03 146.221 379.52L253.5 389L388.5 401.5L488.5 411.5L490 391.5H488.5L488 381H487V375L490 372L488 368.5H487V364.5L483 359V365.5L480.5 372L474.5 381L472.5 385L468.5 391.5L467.5 397.5L463.5 400L459.5 403L455.5 399.5L452.5 397.5V390.5L450 386.5V380.5L454 370.5V366.5L447 370.5L437.5 378L430.5 384L423 388V390.5L421 394L417 387V396V400L415 403H410L400 401.5L395.5 401L394.5 393V387L398.5 378L401.5 377V373.5L402 369.5L408 362.5L411.5 355.5L416.5 355H424L417.5 353L415.5 350.5H414.5L411 350L406 352.5L405 347.5L402.5 354V357L401 352.5V344.5L398.5 357L396 358.5L391 362.5L386 366.5H380.5L377 368.5L373 371L374 361L367.5 369.5L364.5 366.5L369.5 364.5L370.5 361L369.5 359L365.5 362.5V357L374 352.5L368.5 351.5L365.5 352.5L366 348L374 349L376 343.5L368 344L368.5 342L373 339L374.5 334.5L378 331.5H387L379.5 328L387 325L393.5 327L388.5 322.5L396.5 319L402 315L410 317.5L415 321.5L410 313.5L411.5 312L417 315L421 317.5L418 308.5L425.5 309.5L426.5 313.5L430.5 317.5L428.5 309.5L434 314.5V317.5L435.5 310L441 318.5L442.5 321.5V314.5H445.5L446.5 318.5L448 319H451.5V312L446.5 311.5L440.5 308L437.5 307L435.5 305L430.5 301V299H428H426.5V301H425.5V288.5L427 284.5L422 288.5V295.5L420.5 289.5L419 292.5L417.5 294L411.5 294.5L406 295.5L403 292L397.5 288.5V285L405 277L393.5 280.5L392 276.5L397.5 267.5L401 264L404 258L416.5 255L423.5 252.5H437.5L449.5 256.5L459.5 262L466.5 269.5L471 275V266.5L468 265V260L463.5 261L465.5 258V254L464.5 249.5L459 250V247V244.5L461.5 244L459.5 242.5H457.5L461.5 241V237.5L457.5 237V234L461.5 235.5L463 233.5L458.5 231.5L461.5 230.5V228V227L464 227.5L466.5 221L467 224.5L468.5 225L471 224L474 231.5V224.5L479.5 227L481.5 231.5V239.5L487 227L488.5 234H492H492.5L493.5 235.5L494 239L489.5 248.5V254L496.5 241L502 233.5L507 227H511L512 232.5L512.5 221.5L518.5 213.5V224L521.5 213.5L524 221.5L528.5 213H531L528.5 223L533 219.5L534 213.5L539.5 212L537.5 217L541.5 215H544L545.5 217.5L544 219.5H550L553 220.5V223V225L555.5 226L553.5 228.5L555.5 232.5L552 239L546.5 242.5V247L545 248.5L539.5 253.5V256.5L535 262L535.5 264.5H533L529.5 268L527.5 269.5V272.5L525.5 279.5L526.5 284.5L528.5 286V276L531 273.5H533V269.5L538.5 271V267H540.5L543 264H546.5L550 260V263H554.5V267L555.5 268L558 264V258L565.5 256.5V262L569 259H574.5L576.5 256.5H578H578.5L588.5 257.5V260H593.5L595 264L596.5 267L600 271L601 276L603 284.5L599.5 287V290.5L593.5 292L590 295.5H580.5H570.5H565.5L566 297.5H570.5L576 298H579.5L584 299H591L594.5 301.5L590 303.5H596.5H603L604.5 306.5L603 310H608.5L613.5 312.5L619 321.5L623 325.5V334.5L622.5 338.5L622 342.5L618 345L615 346.5L613.5 340L612.5 346.5V349L601 347L598 337L595 341.5L589.5 337.5H588.5H581.5L579.5 333L575 337L572 332.5L570.5 337.5L567.5 336.5V341.5L565 345.5H570L565.5 348H570L570.5 350.5H578.5L575 351.5L577.5 355L574.5 355.5H584V359.5C580.667 359.333 575.3 359.3 580.5 360.5C585.7 361.7 587.333 366.333 587.5 368.5L584.5 369L589.5 371.5L596.5 374V379L595 379.5L599 382.5L601 386.5H599L601.5 392L603 395.5V402L600.5 402.5L602.5 408.5L595.5 402.5L598 408.5L599 411.5L596.5 418.5V410L592 416L591.5 410L589.5 414.5L587.5 413.5L588.5 407.5L580.5 413.5L582 408L584.5 403.5L584 395.5L579 401.5V394.5L580.5 390L573.5 395.5V388L577 385L568 386L564.5 389.5L563.5 386.5L564.5 382.5L565 376L557.5 381.5V376L553 377.5L552 374H549.5V368.5L545 370.5V365L536.5 369L535.5 364L531 368.5V361.5L527.5 367.5L521.5 361.5L516 363L512.5 355L506 359.5L503.5 364V366.5L506.5 368.5L509 371.5V373L508 374H506V370.5H504.5V375V377.5H506V392.5H504.5L503.5 388L502.5 388.5V413.5L627.5 424.5L633 426L640.5 424.5L636.5 422.5H650.5V423.5L656.5 420L658.5 416V411.5L652 413.5H646L643.5 411.5L636.5 413.5L633 408.5H632L627.5 408V405L634 401.5H632L637.5 398.5L631.5 394L642 388L655.5 385H660L667.5 386.5L682.5 394L693 403.5L697.5 416V426L702.5 416V408L704 398.5V392L706.5 382.5L708.5 377H710L705.5 410L710 399.5L718 390H720.5H731L733 388H740.5L745.5 390L748.5 394H751L755.5 394.5L762.5 399.5V406V411.5H766L765 413.5L762.5 414.5L758.5 418.5V422.5H766L771.5 418.5V423.5L768 424.5H774.5V430.5L779 432.5L784 440L785.5 444.5V448L784 449L779 445.5L776.5 444.5L774.5 441.5V450V597L775.5 723.5H-0.5L0 367.5Z" fill="#D9D9D9"/>
<path d="M633 426L627.5 424.5L502.5 413.5V388.5L503.5 388L504.5 392.5H506V377.5H504.5V375V370.5H506V374H508L509 373V371.5L506.5 368.5L503.5 366.5V364L506 359.5L512.5 355L516 363L521.5 361.5L527.5 367.5L531 361.5V368.5L535.5 364L536.5 369L545 365V370.5L549.5 368.5V374H552L553 377.5L557.5 376V381.5L565 376L564.5 382.5L563.5 386.5L564.5 389.5L568 386L577 385L573.5 388V395.5L580.5 390L579 394.5V401.5L584 395.5L584.5 403.5L582 408L580.5 413.5L588.5 407.5L587.5 413.5L589.5 414.5L591.5 410L592 416L596.5 410V418.5L599 411.5L598 408.5L595.5 402.5L602.5 408.5L600.5 402.5L603 402V395.5L601.5 392L599 386.5H601L599 382.5L595 379.5L596.5 379V374L589.5 371.5L584.5 369L587.5 368.5C587.333 366.333 585.7 361.7 580.5 360.5C575.3 359.3 580.667 359.333 584 359.5V355.5H574.5L577.5 355L575 351.5L578.5 350.5H570.5L570 348H565.5L570 345.5H565L567.5 341.5V336.5L570.5 337.5L572 332.5L575 337L579.5 333L581.5 337.5H588.5H589.5L595 341.5L598 337L601 347L612.5 349V346.5L613.5 340L615 346.5L618 345L622 342.5L622.5 338.5L623 334.5V325.5L619 321.5L613.5 312.5L608.5 310H603L604.5 306.5L603 303.5H596.5H590L594.5 301.5L591 299H584L579.5 298H576L570.5 297.5H566L565.5 295.5H570.5H580.5H590L593.5 292L599.5 290.5V287L603 284.5L601 276L600 271L596.5 267L595 264L593.5 260H588.5V257.5L578.5 256.5H578H576.5L574.5 259H569L565.5 262V256.5L558 258V264L555.5 268L554.5 267V263H550V260L546.5 264H543L540.5 267H538.5V271L533 269.5V273.5H531L528.5 276V286L526.5 284.5L525.5 279.5L527.5 272.5V269.5L529.5 268L533 264.5H535.5L535 262L539.5 256.5V253.5L545 248.5L546.5 247V242.5L552 239L555.5 232.5L553.5 228.5L555.5 226L553 225V223V220.5L550 219.5H544L545.5 217.5L544 215H541.5L537.5 217L539.5 212L534 213.5L533 219.5L528.5 223L531 213H528.5L524 221.5L521.5 213.5L518.5 224V213.5L512.5 221.5L512 232.5L511 227H507L502 233.5L496.5 241L489.5 254V248.5L494 239L493.5 235.5L492.5 234H492H488.5L487 227L481.5 239.5V231.5L479.5 227L474 224.5V231.5L471 224L468.5 225L467 224.5L466.5 221L464 227.5L461.5 227V228V230.5L458.5 231.5L463 233.5L461.5 235.5L457.5 234V237L461.5 237.5V241L457.5 242.5H459.5L461.5 244L459 244.5V247V250L464.5 249.5L465.5 254V258L463.5 261L468 260V265L471 266.5V275L466.5 269.5L459.5 262L449.5 256.5L437.5 252.5H423.5L416.5 255L404 258L401 264L397.5 267.5L392 276.5L393.5 280.5L405 277L397.5 285V288.5L403 292L406 295.5L411.5 294.5L417.5 294L419 292.5L420.5 289.5L422 295.5V288.5L427 284.5L425.5 288.5V301H426.5V299H428H430.5V301L435.5 305L437.5 307L440.5 308L446.5 311.5L451.5 312V319H448L446.5 318.5L445.5 314.5H442.5V321.5L441 318.5L435.5 310L434 317.5V314.5L428.5 309.5L430.5 317.5L426.5 313.5L425.5 309.5L418 308.5L421 317.5L417 315L411.5 312L410 313.5L415 321.5L410 317.5L402 315L396.5 319L388.5 322.5L393.5 327L387 325L379.5 328L387 331.5H378L374.5 334.5L373 339L368.5 342L368 344L376 343.5L374 349L366 348L365.5 352.5L368.5 351.5L374 352.5L365.5 357V362.5L369.5 359L370.5 361L369.5 364.5L364.5 366.5L367.5 369.5L374 361L373 371L377 368.5L380.5 366.5H386L391 362.5L396 358.5L398.5 357L401 344.5V352.5L402.5 357V354L405 347.5L406 352.5L411 350L414.5 350.5H415.5L417.5 353L424 355H416.5L411.5 355.5L408 362.5L402 369.5L401.5 373.5V377L398.5 378L394.5 387V393L395.5 401L400 401.5L410 403H415L417 400V396V387L421 394L423 390.5V388L430.5 384L437.5 378L447 370.5L454 366.5V370.5L450 380.5V386.5L452.5 390.5V397.5L455.5 399.5L459.5 403L463.5 400L467.5 397.5L468.5 391.5L472.5 385L474.5 381L480.5 372L483 365.5V359L487 364.5V368.5H488L490 372L487 375V381H488L488.5 391.5H490L488.5 411.5L388.5 401.5L253.5 389L146 379.5C146.167 384.5 146.4 386.9 146 356.5C145.5 318.5 143.5 285 142.5 272.5C140.5 266.9 139.333 243.833 139 233C140.5 231.5 143.1 227.1 141.5 221.5C139.9 215.9 144.833 214.5 147.5 214.5L151.5 217.5V223.5L153 226L158 220L162 222.5L159 225L161 228.5L166 222.5L163.5 233V239.5L168.5 233L173 235L169.5 241.5L170.5 247.5V244L175.5 245C175.333 246.667 175.1 250.2 175.5 251C175.9 251.8 177 251.333 177.5 251C178.167 251 179.9 251 181.5 251C183.1 251 182.167 254.333 181.5 256V258H185.5L186.5 255L195 254V249.5V248.5V240.5H198L199.5 235L198 231.5V223.5L203 225L207 223.5L212.5 211V217.5V228.5L210 235L219 236L218 240.5L225.5 247.5L230.5 255H236.5L233.5 264L239 272.5L247 264L245 275L245.5 281.5L258.5 277L250 287.5L253.5 295.5L261 292L258.5 297L262 300H265.5L267 295.5L269 292L274 295.5L272.5 281.5L278 287.5V282.5L276 275.5L275 271L265.5 258L272.5 266.5L277 262.5L263 251L278 259.5L267 247.5L280.5 251L270.5 243L279.5 245L272.5 239.5L279.5 241.5L269 234L276 237.5C276.333 236.667 276.1 234.3 272.5 231.5C268.9 228.7 267.333 226.667 267 226H272.5L269 215.5L262 206L250 195L239.5 186L229 180L213.5 173.5L198 170V163.5L202.5 168.5H206L210 163.5L208.5 157L210 147L218.5 169V167L217.5 162.5V152H218.5L221.5 148.5L225.5 150.5V172.5L229 170V158L232 152L234.5 157L232 169L239 176L242 170.5L245 161.5C245.5 163.5 246.5 167.7 246.5 168.5C246.5 169.3 246.833 173.833 247 176L251 182.5L258.5 186.5L262 184.5H269L270.5 179L272.5 170.5L276 165.5L280.5 168L283.5 170L290 172.5L297.5 171.5L300.5 172.5L305 171.5L311.5 168L314 165V160.5L317.5 156V152L316.5 149.5L314 141.5V133L310 124L305 120H291.5L282 121.5L286 117L295.5 112.5L294 110L280.5 113.5L276.5 112.5L288 107.5L287 103.5L275.5 109L262 115L266.5 108.5L280.5 99.5H276.5V97.5H272L266.5 96L269 94.5L265.5 92.5L264.5 93.5L261 96V91.5L263.5 90.5H261H260L258.5 91.5H254H252.5L253.5 88L251 86.5L247 85L242 86L233 94.5L225.5 100.5L234.5 83.5H229L225.5 84.5L220 92.5L221.5 83.5L216 84.5L211 87.5L207.5 90.5L208.5 86.5H200.5L199.5 94.5H189.5L189 89.5L196 86.5L195.5 72.5L204 84.5L208.5 76.5L213 74L208.5 63.5L219.5 71.5L217 59.5L225.5 66L235 60.5L245 63L250.5 62L251 60L256 59.5V55L262 51.5L262.5 50L258.5 42L267 46.5L266.5 43L257 37.5L270.5 38L271 34L270.5 30H266.5L269 28L268.5 23L267 19.5L262.5 17L259.5 10L257 7L248 0H184L181 1.5L174.5 7V17L171.5 16.5L169.5 11.5L162.5 14V19L162 27L156 18.5L157 26L154.5 24.5L152.5 22L152 19L149.5 17L150.5 13V9L149.5 4.5L148.5 3L146 2L145.5 0H89L88 2.5L86 4.5L87.5 9.5L88 14L83.5 15L84.5 17L87.5 21.5L80.5 21L78.5 24H85.5L84.5 27.5H79.5L80 32H85.5L82.5 34.5H79H77V31.5L72 31L69.5 29H67L66.5 27L60 23.5L51 19.5L50.5 23.5L48 21L44.5 23.5H42C42 21.3333 42 16.9 42 16.5C42 16.1 39.3333 16.3333 38 16.5V20.5L33.5 20L36.5 30L29 25L25 19.5L19.5 15V19.5V22.5H17.5L11 19.5V23V26L8.5 23.5L2.5 22.5L3.5 26.5H0V89.5L5.5 88.5L12 88L20 80.5L18.5 88H25L34.5 74L30 87L33 89L36 92L40 91L48.5 81L45.5 89V94V96.5V103L46.5 106.5L40.5 95L38 97.5L39.5 103L33.5 102.5L33 99L26.5 97.5L28 102.5L26.5 103L21 97.5L17.5 96.5H13.5L15 99.5L13 101H4.5L8.5 104L9 106.5H5.5L0 106V187L6 178.5L7.5 184.5L11.5 183L15.5 175.5L17.5 181L19.5 178L22.5 175.5L26.5 177.5L27 180L21.5 182.5L11.5 190L10.5 194.5L4.5 196L4 201L0 202V298L4.5 303L53 236L74.5 270L95 220L106 236L105.5 213L111 212L114.5 197L120 205.5C119.5 208 118.9 213.3 120.5 214.5C122.1 215.7 120.833 218.667 120 220L117.5 222V224.5C120.667 226.833 125.7 239.2 120.5 270C116.1 287.6 115.333 348.333 115.5 376.5L69 373V365.5L24.5 361L0 367.5L-0.5 723.5H775.5L774.5 597V450V441.5L776.5 444.5L779 445.5L784 449L785.5 448V444.5L784 440L779 432.5L774.5 430.5V424.5H768L771.5 423.5V418.5L766 422.5H758.5V418.5L762.5 414.5L765 413.5L766 411.5H762.5V406V399.5L755.5 394.5L751 394H748.5L745.5 390L740.5 388H733L731 390H720.5H718L710 399.5L705.5 410L710 377H708.5L706.5 382.5L704 392V398.5L702.5 408V416L697.5 426V416L693 403.5L682.5 394L667.5 386.5L660 385H655.5L642 388L631.5 394L637.5 398.5L632 401.5H634L627.5 405V408L632 408.5H633L636.5 413.5L643.5 411.5L646 413.5H652L658.5 411.5V416L656.5 420L650.5 423.5V422.5H636.5L640.5 424.5L633 426ZM633 426H639" stroke="black"/>
</g>
</g>
<defs>
<clipPath id="clip0_325_120">
<rect width="2688" height="1520" fill="white"/>
</clipPath>
</defs>
</svg>
