{
  "accessors": [
    {
      "bufferView": 0,
      "componentType": 5125,
      "count": 4740,
      "type": "SCALAR"
    },
    {
      "bufferView": 1,
      "componentType": 5126,
      "count": 1328,
      "max": [
        0.00983988604613531,
        -0.010745197045765958,
        0.002599999934318475
      ],
      "min": [
        -0.009757647257581673,
        -0.030341262924098306,
        -0.002599999934318475
      ],
      "type": "VEC3"
    },
    {
      "bufferView": 2,
      "componentType": 5126,
      "count": 1328,
      "max": [
        0.9999999875539668,
        0.999999922073516,
        1.0
      ],
      "min": [
        -0.9999999862937123,
        -0.9999998023702255,
        -1.0
      ],
      "type": "VEC3"
    },
    {
      "bufferView": 3,
      "componentType": 5126,
      "count": 1328,
      "max": [
        0.8988128152018526,
        1.0
      ],
      "min": [
        0.0,
        0.0
      ],
      "type": "VEC2"
    },
    {
      "bufferView": 4,
      "componentType": 5125,
      "count": 6738,
      "type": "SCALAR"
    },
    {
      "bufferView": 5,
      "componentType": 5126,
      "count": 1883,
      "max": [
        0.02775886147852083,
        0.030341262924098306,
        0.00259999993431847
      ],
      "min": [
        -0.027758861478520816,
        -0.01851723149776663,
        -0.002599999934318475
      ],
      "type": "VEC3"
    },
    {
      "bufferView": 6,
      "componentType": 5126,
      "count": 1883,
      "max": [
        0.9999865383521012,
        0.9992753321297109,
        1.0
      ],
      "min": [
        -0.9999902250151935,
        -0.9999976511312686,
        -1.0
      ],
      "type": "VEC3"
    },
    {
      "bufferView": 7,
      "componentType": 5126,
      "count": 1883,
      "max": [
        1.0,
        0.9494844036214936
      ],
      "min": [
        0.0,
        0.0
      ],
      "type": "VEC2"
    }
  ],
  "asset": {
    "generator": "Adobe Illustrator",
    "version": "2.0"
  },
  "bufferViews": [
    {
      "buffer": 0,
      "byteLength": 18960,
      "target": 34963
    },
    {
      "buffer": 0,
      "byteLength": 15936,
      "byteOffset": 18960,
      "target": 34962
    },
    {
      "buffer": 0,
      "byteLength": 15936,
      "byteOffset": 34896,
      "target": 34962
    },
    {
      "buffer": 0,
      "byteLength": 10624,
      "byteOffset": 50832,
      "target": 34962
    },
    {
      "buffer": 0,
      "byteLength": 26952,
      "byteOffset": 61456,
      "target": 34963
    },
    {
      "buffer": 0,
      "byteLength": 22596,
      "byteOffset": 88408,
      "target": 34962
    },
    {
      "buffer": 0,
      "byteLength": 22596,
      "byteOffset": 111004,
      "target": 34962
    },
    {
      "buffer": 0,
      "byteLength": 15064,
      "byteOffset": 133600,
      "target": 34962
    }
  ],
  "buffers": [
    {
      "byteLength": 148664,
      "uri": "data:application/octet-stream;base64,"
    }
  ],
  "materials": [
    {
      "doubleSided": true,
      "pbrMetallicRoughness": {
        "baseColorFactor": [
          0.0,
          0.0,
          0.0,
          1.0
        ],
        "metallicFactor": 0.0,
        "roughnessFactor": 0.4000000059604645
      }
    },
    {
      "doubleSided": true,
      "pbrMetallicRoughness": {
        "baseColorFactor": [
          0.0,
          0.0,
          0.0,
          1.0
        ],
        "metallicFactor": 0.0,
        "roughnessFactor": 0.4000000059604645
      }
    }
  ],
  "meshes": [
    {
      "primitives": [
        {
          "attributes": {
            "NORMAL": 2,
            "POSITION": 1,
            "TEXCOORD_0": 3
          },
          "indices": 0,
          "material": 0,
          "mode": 4
        }
      ]
    },
    {
      "primitives": [
        {
          "attributes": {
            "NORMAL": 6,
            "POSITION": 5,
            "TEXCOORD_0": 7
          },
          "indices": 4,
          "material": 1,
          "mode": 4
        }
      ]
    }
  ],
  "nodes": [
    {
      "mesh": 0
    },
    {
      "mesh": 1
    }
  ],
  "scenes": [
    {
      "nodes": [
        0,
        1
      ]
    }
  ]
}
